<?xml version="1.0" encoding="UTF-8" standalone="no"?>
<!-- Created with Inkscape (http://www.inkscape.org/) -->

<svg
   xmlns:dc="http://purl.org/dc/elements/1.1/"
   xmlns:cc="http://creativecommons.org/ns#"
   xmlns:rdf="http://www.w3.org/1999/02/22-rdf-syntax-ns#"
   xmlns:svg="http://www.w3.org/2000/svg"
   xmlns="http://www.w3.org/2000/svg"
   xmlns:xlink="http://www.w3.org/1999/xlink"
   xmlns:sodipodi="http://sodipodi.sourceforge.net/DTD/sodipodi-0.dtd"
   xmlns:inkscape="http://www.inkscape.org/namespaces/inkscape"
   width="63.999996"
   height="63.999996"
   viewBox="0 0 16.933332 16.933333"
   version="1.1"
   id="svg8"
   inkscape:version="0.92.4 5da689c313, 2019-01-14"
   sodipodi:docname="om-feeling-like.svg">
  <title
     id="title104">om-feeling-like</title>
  <defs
     id="defs2">
    <linearGradient
       inkscape:collect="always"
       xlink:href="#id6"
       id="linearGradient3491"
       gradientUnits="userSpaceOnUse"
       gradientTransform="matrix(2.6865352,-3.9192479,3.9192479,2.6865352,331.17027,433.65853)"
       x1="19.681"
       y1="43.931599"
       x2="44.120602"
       y2="49.187599" />
    <linearGradient
       y2="27.040501"
       x2="46.4604"
       y1="59.988899"
       x1="46.4604"
       gradientUnits="userSpaceOnUse"
       id="id6"
       gradientTransform="matrix(2.5910621,0,0,2.5910621,89.263778,695.20152)">
      <stop
         id="stop4289"
         style="stop-color:#6CADE6"
         offset="0" />
      <stop
         id="stop4291"
         style="stop-color:#85C2F5"
         offset="1" />
    </linearGradient>
    <linearGradient
       inkscape:collect="always"
       xlink:href="#id6"
       id="linearGradient102"
       gradientUnits="userSpaceOnUse"
       gradientTransform="matrix(2.6865352,-3.9192479,3.9192479,2.6865352,331.17027,433.65853)"
       x1="19.681"
       y1="43.931599"
       x2="44.120602"
       y2="49.187599" />
  </defs>
  <sodipodi:namedview
     id="base"
     pagecolor="#ffffff"
     bordercolor="#666666"
     borderopacity="1.0"
     inkscape:pageopacity="0.0"
     inkscape:pageshadow="2"
     inkscape:zoom="3.959798"
     inkscape:cx="87.726784"
     inkscape:cy="40.453904"
     inkscape:document-units="px"
     inkscape:current-layer="layer1"
     showgrid="false"
     units="px"
     fit-margin-top="0"
     fit-margin-left="0"
     fit-margin-right="0"
     fit-margin-bottom="0" />
  <metadata
     id="metadata5">
    <rdf:RDF>
      <cc:Work
         rdf:about="">
        <dc:format>image/svg+xml</dc:format>
        <dc:type
           rdf:resource="http://purl.org/dc/dcmitype/StillImage" />
        <dc:title>om-feeling-like</dc:title>
        <dc:creator>
          <cc:Agent>
            <dc:title>ruru</dc:title>
          </cc:Agent>
        </dc:creator>
      </cc:Work>
    </rdf:RDF>
  </metadata>
  <g
     inkscape:label="Livello 1"
     inkscape:groupmode="layer"
     id="layer1"
     transform="translate(-71.664286,-123.73571)">
    <g
       transform="translate(24.628962,-110.6636)"
       id="g623">
      <rect
         style="fill:none;fill-opacity:1;stroke:none;stroke-width:1.69333339;stroke-miterlimit:4;stroke-dasharray:none;stroke-opacity:1"
         id="rect1650"
         width="16.933332"
         height="16.933332"
         x="47.035324"
         y="234.39931" />
      <g
         id="g585">
        <g
           id="g1700"
           transform="matrix(0.26458333,0,0,0.26458333,-17.787592,-70.543798)">
          <g
             id="g1662"
             transform="rotate(-15,901.47403,798.61486)">
            <path
               style="fill:#038a63;fill-opacity:1;stroke-width:0.99999988"
               d="m 199.00547,987.36216 v 25.00004 h 31 v -25.00004 z"
               id="path1652"
               inkscape:connector-curvature="0" />
            <g
               id="g1660"
               transform="matrix(0.99982331,0,0,1,-537.71878,823.42859)">
              <path
                 transform="translate(736.85718,157.93361)"
                 sodipodi:nodetypes="ccccc"
                 inkscape:connector-curvature="0"
                 id="path1654"
                 d="m 0,27 v 4 h 31 v -4 z"
                 style="fill:#ffffff;fill-opacity:0.78431396" />
              <path
                 style="fill:#4d4d4d"
                 d="m 738.8571,185.93351 v 1 h 1 v -1 z m 1,1 v 1 h 1 v -1 z"
                 inkscape:connector-curvature="0"
                 id="path1656" />
              <circle
                 style="fill:#4d4d4d"
                 r="1"
                 cy="186.93353"
                 cx="764.85718"
                 id="circle1658" />
            </g>
          </g>
          <g
             id="g1674"
             transform="rotate(-15,301.28955,839.41316)">
            <path
               inkscape:connector-curvature="0"
               id="path1664"
               d="m 164,1137.3622 v 25 h 31 v -25 z"
               style="fill:#ffdd55;stroke-width:0.99999988" />
            <g
               transform="matrix(0.99982331,0,0,1,-572.72425,973.42859)"
               id="g1672">
              <path
                 style="fill:#ffffff;fill-opacity:0.78431396"
                 d="m 0,27 v 4 h 31 v -4 z"
                 id="path1666"
                 inkscape:connector-curvature="0"
                 sodipodi:nodetypes="ccccc"
                 transform="translate(736.85718,157.93361)" />
              <path
                 id="path1668"
                 inkscape:connector-curvature="0"
                 d="m 738.8571,185.93351 v 1 h 1 v -1 z m 1,1 v 1 h 1 v -1 z"
                 style="fill:#4d4d4d" />
              <circle
                 id="circle1670"
                 cx="764.85718"
                 cy="186.93353"
                 r="1"
                 style="fill:#4d4d4d" />
            </g>
          </g>
          <g
             transform="rotate(-15,1005.8055,812.35037)"
             id="g1686">
            <path
               inkscape:connector-curvature="0"
               id="path1676"
               d="m 199.00547,987.36216 v 25.00004 h 31 v -25.00004 z"
               style="fill:#aa478a;fill-opacity:1;stroke-width:0.99999988" />
            <g
               transform="matrix(0.99982331,0,0,1,-537.71878,823.42859)"
               id="g1684">
              <path
                 style="fill:#ffffff;fill-opacity:0.78431396"
                 d="m 0,27 v 4 h 31 v -4 z"
                 id="path1678"
                 inkscape:connector-curvature="0"
                 sodipodi:nodetypes="ccccc"
                 transform="translate(736.85718,157.93361)" />
              <path
                 id="path1680"
                 inkscape:connector-curvature="0"
                 d="m 738.8571,185.93351 v 1 h 1 v -1 z m 1,1 v 1 h 1 v -1 z"
                 style="fill:#4d4d4d" />
              <circle
                 id="circle1682"
                 cx="764.85718"
                 cy="186.93353"
                 r="1"
                 style="fill:#4d4d4d" />
            </g>
          </g>
          <g
             transform="rotate(-15,405.62105,853.14867)"
             id="g1698">
            <path
               style="fill:#0088aa;fill-opacity:1;stroke-width:0.99999988"
               d="m 164,1137.3622 v 25 h 31 v -25 z"
               id="path1688"
               inkscape:connector-curvature="0" />
            <g
               id="g1696"
               transform="matrix(0.99982331,0,0,1,-572.72425,973.42859)">
              <path
                 transform="translate(736.85718,157.93361)"
                 sodipodi:nodetypes="ccccc"
                 inkscape:connector-curvature="0"
                 id="path1690"
                 d="m 0,27 v 4 h 31 v -4 z"
                 style="fill:#ffffff;fill-opacity:0.78431396" />
              <path
                 style="fill:#4d4d4d"
                 d="m 738.8571,185.93351 v 1 h 1 v -1 z m 1,1 v 1 h 1 v -1 z"
                 inkscape:connector-curvature="0"
                 id="path1692" />
              <circle
                 style="fill:#4d4d4d"
                 r="1"
                 cy="186.93353"
                 cx="764.85718"
                 id="circle1694" />
            </g>
          </g>
        </g>
        <g
           transform="matrix(0.04148862,0,0,0.04148862,31.840068,238.56835)"
           id="g6377">
          <g
             transform="translate(0,-291.42857)"
             id="g5809">
            <path
               id="path5811"
               d="m 655.74508,341.48008 -28.76342,10.05852 -72.37888,28.89957 -2.49057,-1.81615 -0.32214,0.11261 7.01134,4.58153 97.53988,-40.28412 -0.59643,-1.55193 z m -71.32601,59.37576 -0.0178,0.0356 1.93801,1.34178 c -7.44224,24.8233 -20.92362,48.02437 -49.36181,55.67276 -2.28376,0.61188 -4.55234,1.13211 -6.80425,1.56848 -16.60517,4.94762 -31.64332,4.51223 -43.69605,-3.13721 12.48859,7.64883 32.89824,10.30333 54.69441,4.44368 28.44275,-7.64515 41.92407,-30.84611 49.36642,-55.6696 l -6.11877,-4.25583 z"
               class="fil74"
               inkscape:connector-curvature="0"
               style="clip-rule:evenodd;fill:#95dcf9;fill-opacity:1;fill-rule:evenodd;image-rendering:optimizeQuality;shape-rendering:geometricPrecision;text-rendering:geometricPrecision" />
            <path
               id="path5813"
               d="m 653.73507,345.24609 -47.42183,16.57214 -47.77905,18.07594 27.58786,19.27133 1.40253,0.98141 -0.4914,1.64997 c -3.80312,12.67523 -9.37565,24.8248 -17.56203,35.06017 -8.24812,10.31552 -19.14424,18.70703 -33.49671,23.76316 -11.28895,3.9717 -22.01942,5.67944 -31.75503,4.60579 -2.84001,-0.31375 -5.59134,-0.86609 -8.25076,-1.66161 8.10312,4.41816 18.87131,8.71036 31.24254,11.10079 22.94588,4.43385 51.30327,2.19396 78.18311,-18.10995 l 0.005,0.003 c 1.31434,-1.00421 2.7297,-2.1161 4.21371,-3.35788 2.59176,-2.16303 7.2499,-8.11481 12.17723,-14.41961 1.97071,-2.52752 4.01237,-5.12884 5.85393,-7.41832 l 1.37319,-1.70553 1.82083,1.23479 23.13637,15.72994 0.53099,-51.15039 0.008,-10e-4 -0.77766,-50.22395 z m -49.04549,12.11152 50.57118,-17.67253 3.0962,-1.0824 0.0525,3.28838 0.82937,53.57301 0.007,0.0591 -0.57868,55.56766 -0.0477,4.41723 -3.66167,-2.48997 -24.97118,-16.97408 -4.45506,5.65553 c -5.08718,6.50818 -9.89103,12.65268 -12.87457,15.1391 -1.36908,1.14362 -2.85519,2.30906 -4.40373,3.48617 l -0.006,0.009 c -28.17043,21.2836 -57.88362,23.63523 -81.92757,18.98643 -24.07169,-4.64759 -42.61518,-16.44687 -48.25003,-23.21481 l -0.0369,-0.0453 -0.42737,-0.53791 -1.27749,-1.61052 1.40009,-1.49659 1.56261,-1.66415 1.60675,-1.70874 1.72458,1.58363 c 6.34326,5.80421 13.82581,8.97371 22.11571,9.89327 8.98172,0.99236 19.01682,-0.63406 29.66617,-4.37743 13.43607,-4.73169 23.62622,-12.5797 31.35063,-22.24041 7.43962,-9.30477 12.62987,-20.30111 16.25016,-31.83611 l -29.86195,-20.85734 -3.68561,-2.57419 4.20023,-1.5912 51.97929,-19.66715 0.0531,-0.0178 z"
               class="fil75"
               inkscape:connector-curvature="0"
               style="clip-rule:evenodd;fill:#4089a6;fill-opacity:1;fill-rule:nonzero;image-rendering:optimizeQuality;shape-rendering:geometricPrecision;text-rendering:geometricPrecision" />
            <path
               id="path5815"
               d="m 656.04605,341.9243 -50.57118,17.67254 -51.97929,19.66715 31.27354,21.84539 c -7.43906,24.81867 -21.78055,47.47788 -49.58,57.2716 -21.2784,7.48697 -40.26304,6.71421 -54.16528,-5.99971 l -1.56259,1.66417 c 9.78465,12.95335 74.75217,48.34874 131.67324,0.9741 3.87426,-3.22993 11.45519,-13.59453 18.36397,-22.17453 l 26.79815,18.21975 0.57868,-55.56764 -0.82939,-53.57302 z"
               class="fil65"
               inkscape:connector-curvature="0"
               style="clip-rule:evenodd;fill:url(#linearGradient102);fill-opacity:1;fill-rule:evenodd;image-rendering:optimizeQuality;shape-rendering:geometricPrecision;text-rendering:geometricPrecision" />
          </g>
          <g
             id="g5817"
             transform="rotate(179.99075,563.59913,246.23938)">
            <path
               style="clip-rule:evenodd;fill:#95dcf9;fill-opacity:1;fill-rule:evenodd;image-rendering:optimizeQuality;shape-rendering:geometricPrecision;text-rendering:geometricPrecision"
               inkscape:connector-curvature="0"
               class="fil74"
               d="m 655.74508,341.48008 -28.76342,10.05852 -72.37888,28.89957 -2.49057,-1.81615 -0.32214,0.11261 7.01134,4.58153 97.53988,-40.28412 -0.59643,-1.55193 z m -71.32601,59.37576 -0.0178,0.0356 1.93801,1.34178 c -7.44224,24.8233 -20.92362,48.02437 -49.36181,55.67276 -2.28376,0.61188 -4.55234,1.13211 -6.80425,1.56848 -16.60517,4.94762 -31.64332,4.51223 -43.69605,-3.13721 12.48859,7.64883 32.89824,10.30333 54.69441,4.44368 28.44275,-7.64515 41.92407,-30.84611 49.36642,-55.6696 l -6.11877,-4.25583 z"
               id="path5819" />
            <path
               style="clip-rule:evenodd;fill:#4089a6;fill-opacity:1;fill-rule:nonzero;image-rendering:optimizeQuality;shape-rendering:geometricPrecision;text-rendering:geometricPrecision"
               inkscape:connector-curvature="0"
               class="fil75"
               d="m 653.73507,345.24609 -47.42183,16.57214 -47.77905,18.07594 27.58786,19.27133 1.40253,0.98141 -0.4914,1.64997 c -3.80312,12.67523 -9.37565,24.8248 -17.56203,35.06017 -8.24812,10.31552 -19.14424,18.70703 -33.49671,23.76316 -11.28895,3.9717 -22.01942,5.67944 -31.75503,4.60579 -2.84001,-0.31375 -5.59134,-0.86609 -8.25076,-1.66161 8.10312,4.41816 18.87131,8.71036 31.24254,11.10079 22.94588,4.43385 51.30327,2.19396 78.18311,-18.10995 l 0.005,0.003 c 1.31434,-1.00421 2.7297,-2.1161 4.21371,-3.35788 2.59176,-2.16303 7.2499,-8.11481 12.17723,-14.41961 1.97071,-2.52752 4.01237,-5.12884 5.85393,-7.41832 l 1.37319,-1.70553 1.82083,1.23479 23.13637,15.72994 0.53099,-51.15039 0.008,-10e-4 -0.77766,-50.22395 z m -49.04549,12.11152 50.57118,-17.67253 3.0962,-1.0824 0.0525,3.28838 0.82937,53.57301 0.007,0.0591 -0.57868,55.56766 -0.0477,4.41723 -3.66167,-2.48997 -24.97118,-16.97408 -4.45506,5.65553 c -5.08718,6.50818 -9.89103,12.65268 -12.87457,15.1391 -1.36908,1.14362 -2.85519,2.30906 -4.40373,3.48617 l -0.006,0.009 c -28.17043,21.2836 -57.88362,23.63523 -81.92757,18.98643 -24.07169,-4.64759 -42.61518,-16.44687 -48.25003,-23.21481 l -0.0369,-0.0453 -0.42737,-0.53791 -1.27749,-1.61052 1.40009,-1.49659 1.56261,-1.66415 1.60675,-1.70874 1.72458,1.58363 c 6.34326,5.80421 13.82581,8.97371 22.11571,9.89327 8.98172,0.99236 19.01682,-0.63406 29.66617,-4.37743 13.43607,-4.73169 23.62622,-12.5797 31.35063,-22.24041 7.43962,-9.30477 12.62987,-20.30111 16.25016,-31.83611 l -29.86195,-20.85734 -3.68561,-2.57419 4.20023,-1.5912 51.97929,-19.66715 0.0531,-0.0178 z"
               id="path5821" />
            <path
               style="clip-rule:evenodd;fill:url(#linearGradient3491);fill-opacity:1;fill-rule:evenodd;image-rendering:optimizeQuality;shape-rendering:geometricPrecision;text-rendering:geometricPrecision"
               inkscape:connector-curvature="0"
               class="fil65"
               d="m 656.04605,341.9243 -50.57118,17.67254 -51.97929,19.66715 31.27354,21.84539 c -7.43906,24.81867 -21.78055,47.47788 -49.58,57.2716 -21.2784,7.48697 -40.26304,6.71421 -54.16528,-5.99971 l -1.56259,1.66417 c 9.78465,12.95335 74.75217,48.34874 131.67324,0.9741 3.87426,-3.22993 11.45519,-13.59453 18.36397,-22.17453 l 26.79815,18.21975 0.57868,-55.56764 -0.82939,-53.57302 z"
               id="path5823" />
          </g>
        </g>
      </g>
    </g>
  </g>
</svg>
